<?xml version="1.0" encoding="UTF-8" standalone="no"?>
<!DOCTYPE svg PUBLIC "-//W3C//DTD SVG 1.1//EN" "http://www.w3.org/Graphics/SVG/1.1/DTD/svg11.dtd">
<svg width="100%" height="100%" viewBox="0 0 32 32" version="1.1" xmlns="http://www.w3.org/2000/svg" xmlns:xlink="http://www.w3.org/1999/xlink" xml:space="preserve" xmlns:serif="http://www.serif.com/" style="fill-rule:evenodd;clip-rule:evenodd;stroke-linejoin:round;stroke-miterlimit:2;">
    <g transform="matrix(-5.33455,0,0,1,40.9757,-4)">
        <path d="M4.682,16L7.681,16" style="fill:none;"/>
    </g>
    <g transform="matrix(-5.33455,0,0,1,40.9757,4)">
        <path d="M4.682,16L7.681,16" style="fill:none;"/>
    </g>
    <g transform="matrix(-5.33455,0,0,2,56.9757,-16)">
        <path d="M4.682,16L7.681,16" style="fill:none;"/>
    </g>
    <g transform="matrix(-1,0,0,1,40,8)">
        <path d="M24,16C19.585,16 16,9.43 16,8C16,6.57 19.585,0 24,0L32,0C29.316,5.674 29.429,11.017 32,16L24,16Z" style="fill:rgb(235,235,235);"/>
    </g>
</svg>
