<?xml version="1.0" encoding="UTF-8" standalone="no"?>
<!DOCTYPE svg PUBLIC "-//W3C//DTD SVG 1.1//EN" "http://www.w3.org/Graphics/SVG/1.1/DTD/svg11.dtd">
<svg width="100%" height="100%" viewBox="0 0 64 64" version="1.1" xmlns="http://www.w3.org/2000/svg" xmlns:xlink="http://www.w3.org/1999/xlink" xml:space="preserve" xmlns:serif="http://www.serif.com/" style="fill-rule:evenodd;clip-rule:evenodd;stroke-linejoin:round;stroke-miterlimit:2;">
    <g>
        <g transform="matrix(0.489771,0.961229,-1.22175,0.622515,43.9132,-3.98048)">
            <rect x="13" y="0" width="7.416" height="32" style="fill:rgb(80,254,155);"/>
            <path d="M20.416,0L20.416,32L13,32L13,0L20.416,0ZM18.562,1.459L14.854,1.459L14.854,30.541L18.562,30.541L18.562,1.459Z"/>
        </g>
        <g transform="matrix(-0.473617,0.96929,-1.25127,-0.6114,60.0691,35.3701)">
            <rect x="13" y="0" width="7.416" height="32" style="fill:rgb(80,254,155);"/>
            <path d="M20.416,0L20.416,32L13,32L13,0L20.416,0ZM18.562,1.436L14.854,1.436L14.854,30.564L18.562,30.564L18.562,1.436Z"/>
        </g>
        <g transform="matrix(1.24255,0,0,1.24255,-15.5229,-10.7715)">
            <circle cx="53.538" cy="49.714" r="10.462" style="fill:rgb(195,138,105);"/>
            <path d="M53.538,39.251C59.312,39.251 64,43.939 64,49.714C64,55.488 59.312,60.176 53.538,60.176C47.763,60.176 43.075,55.488 43.075,49.714C43.075,43.939 47.763,39.251 53.538,39.251ZM53.538,40.861C48.652,40.861 44.685,44.828 44.685,49.714C44.685,54.6 48.652,58.566 53.538,58.566C58.424,58.566 62.39,54.6 62.39,49.714C62.39,44.828 58.424,40.861 53.538,40.861Z"/>
        </g>
        <g transform="matrix(1.24255,0,0,1.24255,-15.5229,-48.7715)">
            <circle cx="53.538" cy="49.714" r="10.462" style="fill:rgb(195,138,105);"/>
            <path d="M53.538,39.251C59.312,39.251 64,43.939 64,49.714C64,55.488 59.312,60.176 53.538,60.176C47.763,60.176 43.075,55.488 43.075,49.714C43.075,43.939 47.763,39.251 53.538,39.251ZM53.538,40.861C48.652,40.861 44.685,44.828 44.685,49.714C44.685,54.6 48.652,58.566 53.538,58.566C58.424,58.566 62.39,54.6 62.39,49.714C62.39,44.828 58.424,40.861 53.538,40.861Z"/>
        </g>
        <g transform="matrix(1.24255,0,0,1.24255,-53.5229,-29.7715)">
            <circle cx="53.538" cy="49.714" r="10.462" style="fill:rgb(174,214,203);"/>
            <path d="M53.538,39.251C59.312,39.251 64,43.939 64,49.714C64,55.488 59.312,60.176 53.538,60.176C47.763,60.176 43.075,55.488 43.075,49.714C43.075,43.939 47.763,39.251 53.538,39.251ZM53.538,40.861C48.652,40.861 44.685,44.828 44.685,49.714C44.685,54.6 48.652,58.566 53.538,58.566C58.424,58.566 62.39,54.6 62.39,49.714C62.39,44.828 58.424,40.861 53.538,40.861Z"/>
        </g>
    </g>
</svg>
