<?xml version="1.0" encoding="UTF-8" standalone="no"?>
<!DOCTYPE svg PUBLIC "-//W3C//DTD SVG 1.1//EN" "http://www.w3.org/Graphics/SVG/1.1/DTD/svg11.dtd">
<svg width="100%" height="100%" viewBox="0 0 64 64" version="1.1" xmlns="http://www.w3.org/2000/svg" xmlns:xlink="http://www.w3.org/1999/xlink" xml:space="preserve" xmlns:serif="http://www.serif.com/" style="fill-rule:evenodd;clip-rule:evenodd;stroke-linecap:round;stroke-linejoin:round;stroke-miterlimit:1.5;">
    <g>
        <path d="M60,0C61.061,-0 62.078,0.421 62.828,1.172C63.579,1.922 64,2.939 64,4L64,60C64,61.061 63.579,62.078 62.828,62.828C62.078,63.579 61.061,64 60,64L4,64C2.939,64 1.922,63.579 1.172,62.828C0.421,62.078 -0,61.061 -0,60L0,4C-0,2.939 0.421,1.922 1.172,1.172C1.922,0.421 2.939,-0 4,0L60,0Z" style="fill:rgb(233,253,251);"/>
        <clipPath id="_clip1">
            <path d="M60,0C61.061,-0 62.078,0.421 62.828,1.172C63.579,1.922 64,2.939 64,4L64,60C64,61.061 63.579,62.078 62.828,62.828C62.078,63.579 61.061,64 60,64L4,64C2.939,64 1.922,63.579 1.172,62.828C0.421,62.078 -0,61.061 -0,60L0,4C-0,2.939 0.421,1.922 1.172,1.172C1.922,0.421 2.939,-0 4,0L60,0Z"/>
        </clipPath>
        <g clip-path="url(#_clip1)">
            <g transform="matrix(1,0,0,0.802649,0,-0.0330049)">
                <rect x="-0" y="-0" width="64" height="19.934" style="fill:rgb(171,205,202);"/>
            </g>
        </g>
        <path d="M60,0C61.061,-0 62.078,0.421 62.828,1.172C63.579,1.922 64,2.939 64,4L64,60C64,61.061 63.579,62.078 62.828,62.828C62.078,63.579 61.061,64 60,64L4,64C2.939,64 1.922,63.579 1.172,62.828C0.421,62.078 -0,61.061 -0,60L0,4C-0,2.939 0.421,1.922 1.172,1.172C1.922,0.421 2.939,-0 4,0L60,0ZM60,2L4,2C3.47,2 2.961,2.211 2.586,2.586C2.211,2.961 2,3.47 2,4L2,60C2,60.53 2.211,61.039 2.586,61.414C2.961,61.789 3.47,62 4,62L60,62C60.53,62 61.039,61.789 61.414,61.414C61.789,61.039 62,60.53 62,60L62,4C62,3.47 61.789,2.961 61.414,2.586C61.039,2.211 60.53,2 60,2Z"/>
        <path d="M-0,15.967L64,15.967" style="fill:none;stroke:black;stroke-width:2px;"/>
        <path d="M64,32L0,32" style="fill:none;stroke:black;stroke-width:2px;"/>
        <path d="M0,48.033L64,48.033" style="fill:none;stroke:black;stroke-width:2px;"/>
    </g>
</svg>
