<?xml version="1.0" encoding="UTF-8" standalone="no"?>
<!DOCTYPE svg PUBLIC "-//W3C//DTD SVG 1.1//EN" "http://www.w3.org/Graphics/SVG/1.1/DTD/svg11.dtd">
<svg width="100%" height="100%" viewBox="0 0 32 32" version="1.1" xmlns="http://www.w3.org/2000/svg" xmlns:xlink="http://www.w3.org/1999/xlink" xml:space="preserve" xmlns:serif="http://www.serif.com/" style="fill-rule:evenodd;clip-rule:evenodd;stroke-linecap:round;stroke-linejoin:round;stroke-miterlimit:1.5;">
    <g transform="matrix(0.962264,0,0,0.962264,0.603774,0.603774)">
        <path d="M16,0L16,32" style="fill:none;stroke:rgb(217,217,217);stroke-width:1.04px;stroke-dasharray:6.24,2.08,0,0,0,0;"/>
    </g>
    <g transform="matrix(1.25126,0,0,1.06193,-2.94097,-2.44253)">
        <path d="M12.639,4.98C12.756,4.694 13.025,4.541 13.287,4.612C13.55,4.683 13.736,4.958 13.736,5.275C13.736,11.608 13.736,26.114 13.736,29.422C13.736,29.603 13.675,29.776 13.567,29.903C13.458,30.031 13.312,30.102 13.159,30.102C11.311,30.102 5.531,30.102 3.27,30.102C3.071,30.102 2.887,29.982 2.781,29.784C2.675,29.586 2.664,29.337 2.75,29.127C4.331,25.266 10.182,10.978 12.639,4.98Z" style="fill:rgb(47,149,186);"/>
    </g>
    <g transform="matrix(-1.25126,0,0,1.06193,34.5127,-2.44253)">
        <path d="M12.639,4.98C12.756,4.694 13.025,4.541 13.287,4.612C13.55,4.683 13.736,4.958 13.736,5.275C13.736,11.608 13.736,26.114 13.736,29.422C13.736,29.603 13.675,29.776 13.567,29.903C13.458,30.031 13.312,30.102 13.159,30.102C11.311,30.102 5.531,30.102 3.27,30.102C3.071,30.102 2.887,29.982 2.781,29.784C2.675,29.586 2.664,29.337 2.75,29.127C4.331,25.266 10.182,10.978 12.639,4.98Z" style="fill:rgb(153,153,153);"/>
    </g>
</svg>
