<?xml version="1.0" encoding="UTF-8" standalone="no"?>
<!DOCTYPE svg PUBLIC "-//W3C//DTD SVG 1.1//EN" "http://www.w3.org/Graphics/SVG/1.1/DTD/svg11.dtd">
<svg width="100%" height="100%" viewBox="0 0 64 64" version="1.1" xmlns="http://www.w3.org/2000/svg" xmlns:xlink="http://www.w3.org/1999/xlink" xml:space="preserve" xmlns:serif="http://www.serif.com/" style="fill-rule:evenodd;clip-rule:evenodd;stroke-linejoin:round;stroke-miterlimit:2;">
    <g>
        <g transform="matrix(1.33468,0,0,0.373627,-10.7098,5)">
            <path d="M33.498,-8.029C33.498,-0.219 33.498,144.748 33.498,152.559C33.498,153.978 33.341,155.34 33.06,156.344C32.779,157.347 32.397,157.911 32,157.911C31.603,157.911 31.221,157.347 30.94,156.344C30.659,155.34 30.502,153.978 30.502,152.559C30.502,144.748 30.502,-0.219 30.502,-8.029C30.502,-9.449 30.659,-10.811 30.94,-11.814C31.221,-12.818 31.603,-13.382 32,-13.382C32.397,-13.382 32.779,-12.818 33.06,-11.814C33.341,-10.811 33.498,-9.449 33.498,-8.029Z" style="fill:rgb(217,201,104);"/>
            <path d="M32,157.911C31.603,157.911 31.221,157.347 30.94,156.344C30.659,155.34 30.502,153.978 30.502,152.559L30.502,-8.029C30.502,-9.449 30.659,-10.811 30.94,-11.814C31.221,-12.818 31.603,-13.382 32,-13.382C32.397,-13.382 32.779,-12.818 33.06,-11.814C33.341,-10.811 33.498,-9.449 33.498,-8.029L33.498,152.559C33.498,153.978 33.341,155.34 33.06,156.344C32.96,156.701 32.847,157.002 32.726,157.242C32.642,156.088 32.349,155.235 32,155.235C32.199,155.235 32.389,154.953 32.53,154.451C32.67,153.949 32.749,153.268 32.749,152.559L32.749,-8.029C32.749,-8.739 32.67,-9.42 32.53,-9.922C32.389,-10.424 32.199,-10.706 32,-10.706C31.801,-10.706 31.611,-10.424 31.47,-9.922C31.33,-9.42 31.251,-8.739 31.251,-8.029L31.251,152.559C31.251,153.268 31.33,153.949 31.47,154.451C31.611,154.953 31.801,155.235 32,155.235L32,157.911Z"/>
        </g>
        <g transform="matrix(-2.45177e-16,-1.33468,-0.373627,6.86342e-17,59,74.7098)">
            <path d="M33.498,-8.029C33.498,-0.219 33.498,144.636 33.498,152.462C33.498,155.472 32.816,157.911 31.973,157.911C31.973,157.911 31.972,157.911 31.972,157.911C31.582,157.911 31.208,157.358 30.932,156.373C30.656,155.389 30.502,154.053 30.502,152.66C30.502,144.866 30.502,-0.219 30.502,-8.029C30.502,-9.449 30.659,-10.811 30.94,-11.814C31.221,-12.818 31.603,-13.382 32,-13.382C32.397,-13.382 32.779,-12.818 33.06,-11.814C33.341,-10.811 33.498,-9.449 33.498,-8.029Z" style="fill:rgb(217,201,104);"/>
            <path d="M33.498,-8.029C33.498,-9.449 33.341,-10.811 33.06,-11.814C32.779,-12.818 32.397,-13.382 32,-13.382C31.603,-13.382 31.221,-12.818 30.94,-11.814C30.659,-10.811 30.502,-9.449 30.502,-8.029L30.502,152.66C30.502,154.053 30.656,155.389 30.932,156.373C31.208,157.358 31.582,157.911 31.972,157.911L31.973,157.911C32.816,157.911 33.498,155.472 33.498,152.462L33.498,-8.029ZM31.251,-8.029C31.251,-8.739 31.33,-9.42 31.47,-9.922C31.611,-10.424 31.801,-10.706 32,-10.706C32.199,-10.706 32.389,-10.424 32.53,-9.922C32.67,-9.42 32.749,-8.739 32.749,-8.029L32.749,152.462C32.749,153.994 32.402,155.235 31.973,155.235L31.972,155.235C31.78,155.235 31.597,154.964 31.462,154.481C31.327,153.998 31.251,153.343 31.251,152.66L31.251,-8.029Z"/>
        </g>
        <g transform="matrix(1.33468,0,0,0.373627,5.29019,5)">
            <path d="M30.502,152.559C30.502,144.748 30.502,-0.219 30.502,-8.029C30.502,-9.449 30.659,-10.811 30.94,-11.814C31.221,-12.818 31.603,-13.382 32,-13.382C32.397,-13.382 32.779,-12.818 33.06,-11.814C33.341,-10.811 33.498,-9.449 33.498,-8.029C33.498,-0.219 33.498,144.748 33.498,152.559C33.498,153.978 33.341,155.34 33.06,156.344C32.779,157.347 32.397,157.911 32,157.911C31.603,157.911 31.221,157.347 30.94,156.344C30.659,155.34 30.502,153.978 30.502,152.559Z" style="fill:rgb(217,201,104);"/>
            <path d="M32,157.911C31.603,157.911 31.221,157.347 30.94,156.344C30.659,155.34 30.502,153.978 30.502,152.559L30.502,-8.029C30.502,-9.449 30.659,-10.811 30.94,-11.814C31.221,-12.818 31.603,-13.382 32,-13.382C32.397,-13.382 32.779,-12.818 33.06,-11.814C33.341,-10.811 33.498,-9.449 33.498,-8.029L33.498,152.559C33.498,153.978 33.341,155.34 33.06,156.344C32.96,156.701 32.847,157.002 32.726,157.242C32.642,156.088 32.349,155.235 32,155.235C32.199,155.235 32.389,154.953 32.53,154.451C32.67,153.949 32.749,153.268 32.749,152.559L32.749,131.147L32.75,13.5C32.749,13.461 32.749,13.422 32.749,13.382L32.749,-8.029C32.749,-8.739 32.67,-9.42 32.53,-9.922C32.389,-10.424 32.199,-10.706 32,-10.706C31.801,-10.706 31.611,-10.424 31.47,-9.922C31.33,-9.42 31.251,-8.739 31.251,-8.029L31.251,152.559C31.251,153.268 31.33,153.949 31.47,154.451C31.611,154.953 31.801,155.235 32,155.235L32,157.911Z"/>
        </g>
        <g transform="matrix(-2.45177e-16,-1.33468,-0.373627,6.86342e-17,59,58.7098)">
            <path d="M30.502,152.66C30.502,144.866 30.502,-0.219 30.502,-8.029C30.502,-9.449 30.659,-10.811 30.94,-11.814C31.221,-12.818 31.603,-13.382 32,-13.382C32.397,-13.382 32.779,-12.818 33.06,-11.814C33.341,-10.811 33.498,-9.449 33.498,-8.029C33.498,-0.219 33.498,144.636 33.498,152.462C33.498,155.472 32.816,157.911 31.973,157.911C31.973,157.911 31.972,157.911 31.972,157.911C31.582,157.911 31.208,157.358 30.932,156.373C30.656,155.389 30.502,154.053 30.502,152.66Z" style="fill:rgb(217,201,104);"/>
            <path d="M30.502,152.66C30.502,154.053 30.656,155.389 30.932,156.373C31.208,157.358 31.582,157.911 31.972,157.911L31.973,157.911C32.816,157.911 33.498,155.472 33.498,152.462L33.498,-8.029C33.498,-9.449 33.341,-10.811 33.06,-11.814C32.779,-12.818 32.397,-13.382 32,-13.382C31.603,-13.382 31.221,-12.818 30.94,-11.814C30.659,-10.811 30.502,-9.449 30.502,-8.029L30.502,152.66ZM32,-10.706C32.199,-10.706 32.389,-10.424 32.53,-9.922C32.67,-9.42 32.749,-8.739 32.749,-8.029L32.749,152.462C32.749,153.994 32.402,155.235 31.973,155.235L31.972,155.235C31.78,155.235 31.597,154.964 31.462,154.481C31.327,153.998 31.251,153.343 31.251,152.66L31.251,-8.029C31.251,-8.739 31.33,-9.42 31.47,-9.922C31.611,-10.424 31.801,-10.706 32,-10.706Z"/>
        </g>
        <g transform="matrix(1.33468,0,0,0.373627,-18.7098,5)">
            <path d="M33.498,-8.029C33.498,-0.219 33.498,144.748 33.498,152.559C33.498,153.978 33.341,155.34 33.06,156.344C32.779,157.347 32.397,157.911 32,157.911C31.603,157.911 31.221,157.347 30.94,156.344C30.659,155.34 30.502,153.978 30.502,152.559C30.502,144.748 30.502,-0.219 30.502,-8.029C30.502,-9.449 30.659,-10.811 30.94,-11.814C31.221,-12.818 31.603,-13.382 32,-13.382C32.397,-13.382 32.779,-12.818 33.06,-11.814C33.341,-10.811 33.498,-9.449 33.498,-8.029Z" style="fill:rgb(217,201,104);"/>
            <path d="M32,157.911C31.603,157.911 31.221,157.347 30.94,156.344C30.659,155.34 30.502,153.978 30.502,152.559L30.502,-8.029C30.502,-9.449 30.659,-10.811 30.94,-11.814C31.221,-12.818 31.603,-13.382 32,-13.382C32.397,-13.382 32.779,-12.818 33.06,-11.814C33.341,-10.811 33.498,-9.449 33.498,-8.029L33.498,152.559C33.498,153.978 33.341,155.34 33.06,156.344C32.96,156.701 32.847,157.002 32.726,157.242C32.642,156.088 32.349,155.235 32,155.235C32.199,155.235 32.389,154.953 32.53,154.451C32.67,153.949 32.749,153.268 32.749,152.559L32.749,-8.029C32.749,-8.739 32.67,-9.42 32.53,-9.922C32.389,-10.424 32.199,-10.706 32,-10.706C31.801,-10.706 31.611,-10.424 31.47,-9.922C31.33,-9.42 31.251,-8.739 31.251,-8.029L31.251,152.559C31.251,153.268 31.33,153.949 31.47,154.451C31.611,154.953 31.801,155.235 32,155.235L32,157.911Z"/>
        </g>
        <g transform="matrix(-2.45177e-16,-1.33468,-0.373627,6.86342e-17,59,82.7098)">
            <path d="M33.498,-8.029C33.498,-0.219 33.498,144.636 33.498,152.462C33.498,155.472 32.816,157.911 31.973,157.911C31.973,157.911 31.972,157.911 31.972,157.911C31.582,157.911 31.208,157.358 30.932,156.373C30.656,155.389 30.502,154.053 30.502,152.66C30.502,144.866 30.502,-0.219 30.502,-8.029C30.502,-9.449 30.659,-10.811 30.94,-11.814C31.221,-12.818 31.603,-13.382 32,-13.382C32.397,-13.382 32.779,-12.818 33.06,-11.814C33.341,-10.811 33.498,-9.449 33.498,-8.029Z" style="fill:rgb(217,201,104);"/>
            <path d="M33.498,-8.029C33.498,-9.449 33.341,-10.811 33.06,-11.814C32.779,-12.818 32.397,-13.382 32,-13.382C31.603,-13.382 31.221,-12.818 30.94,-11.814C30.659,-10.811 30.502,-9.449 30.502,-8.029L30.502,152.66C30.502,154.053 30.656,155.389 30.932,156.373C31.208,157.358 31.582,157.911 31.972,157.911L31.973,157.911C32.816,157.911 33.498,155.472 33.498,152.462L33.498,-8.029ZM31.251,-8.029C31.251,-8.739 31.33,-9.42 31.47,-9.922C31.611,-10.424 31.801,-10.706 32,-10.706C32.199,-10.706 32.389,-10.424 32.53,-9.922C32.67,-9.42 32.749,-8.739 32.749,-8.029L32.749,152.462C32.749,153.994 32.402,155.235 31.973,155.235L31.972,155.235C31.78,155.235 31.597,154.964 31.462,154.481C31.327,153.998 31.251,153.343 31.251,152.66L31.251,-8.029Z"/>
        </g>
        <g transform="matrix(1.33468,0,0,0.373627,-2.70981,5)">
            <path d="M33.498,-8.029C33.498,-0.219 33.498,144.748 33.498,152.559C33.498,153.978 33.341,155.34 33.06,156.344C32.779,157.347 32.397,157.911 32,157.911C31.603,157.911 31.221,157.347 30.94,156.344C30.659,155.34 30.502,153.978 30.502,152.559C30.502,144.748 30.502,-0.219 30.502,-8.029C30.502,-9.449 30.659,-10.811 30.94,-11.814C31.221,-12.818 31.603,-13.382 32,-13.382C32.397,-13.382 32.779,-12.818 33.06,-11.814C33.341,-10.811 33.498,-9.449 33.498,-8.029Z" style="fill:rgb(217,201,104);"/>
            <path d="M32,157.911C31.603,157.911 31.221,157.347 30.94,156.344C30.659,155.34 30.502,153.978 30.502,152.559L30.502,-8.029C30.502,-9.449 30.659,-10.811 30.94,-11.814C31.221,-12.818 31.603,-13.382 32,-13.382C32.397,-13.382 32.779,-12.818 33.06,-11.814C33.341,-10.811 33.498,-9.449 33.498,-8.029L33.498,152.559C33.498,153.978 33.341,155.34 33.06,156.344C32.96,156.701 32.847,157.002 32.726,157.242C32.642,156.088 32.349,155.235 32,155.235C32.199,155.235 32.389,154.953 32.53,154.451C32.67,153.949 32.749,153.268 32.749,152.559L32.749,-8.029C32.749,-8.739 32.67,-9.42 32.53,-9.922C32.389,-10.424 32.199,-10.706 32,-10.706C31.801,-10.706 31.611,-10.424 31.47,-9.922C31.33,-9.42 31.251,-8.739 31.251,-8.029L31.251,152.559C31.251,153.268 31.33,153.949 31.47,154.451C31.611,154.953 31.801,155.235 32,155.235L32,157.911Z"/>
        </g>
        <g transform="matrix(-2.45177e-16,-1.33468,-0.373627,6.86342e-17,59,66.7098)">
            <path d="M33.498,-8.029C33.498,-0.219 33.498,144.636 33.498,152.462C33.498,155.472 32.816,157.911 31.973,157.911C31.973,157.911 31.972,157.911 31.972,157.911C31.582,157.911 31.208,157.358 30.932,156.373C30.656,155.389 30.502,154.053 30.502,152.66C30.502,144.866 30.502,-0.219 30.502,-8.029C30.502,-9.449 30.659,-10.811 30.94,-11.814C31.221,-12.818 31.603,-13.382 32,-13.382C32.397,-13.382 32.779,-12.818 33.06,-11.814C33.341,-10.811 33.498,-9.449 33.498,-8.029Z" style="fill:rgb(217,201,104);"/>
            <path d="M33.498,-8.029C33.498,-9.449 33.341,-10.811 33.06,-11.814C32.779,-12.818 32.397,-13.382 32,-13.382C31.603,-13.382 31.221,-12.818 30.94,-11.814C30.659,-10.811 30.502,-9.449 30.502,-8.029L30.502,152.66C30.502,154.053 30.656,155.389 30.932,156.373C31.208,157.358 31.582,157.911 31.972,157.911L31.973,157.911C32.816,157.911 33.498,155.472 33.498,152.462L33.498,-8.029ZM31.251,-8.029C31.251,-8.739 31.33,-9.42 31.47,-9.922C31.611,-10.424 31.801,-10.706 32,-10.706C32.199,-10.706 32.389,-10.424 32.53,-9.922C32.67,-9.42 32.749,-8.739 32.749,-8.029L32.749,152.462C32.749,153.994 32.402,155.235 31.973,155.235L31.972,155.235C31.78,155.235 31.597,154.964 31.462,154.481C31.327,153.998 31.251,153.343 31.251,152.66L31.251,-8.029Z"/>
        </g>
        <g transform="matrix(1.33468,0,0,0.373627,-26.7098,5)">
            <path d="M33.498,-8.029C33.498,-0.219 33.498,144.748 33.498,152.559C33.498,153.978 33.341,155.34 33.06,156.344C32.779,157.347 32.397,157.911 32,157.911C31.603,157.911 31.221,157.347 30.94,156.344C30.659,155.34 30.502,153.978 30.502,152.559C30.502,144.748 30.502,-0.219 30.502,-8.029C30.502,-9.449 30.659,-10.811 30.94,-11.814C31.221,-12.818 31.603,-13.382 32,-13.382C32.397,-13.382 32.779,-12.818 33.06,-11.814C33.341,-10.811 33.498,-9.449 33.498,-8.029Z" style="fill:rgb(217,201,104);"/>
            <path d="M32,157.911C31.603,157.911 31.221,157.347 30.94,156.344C30.659,155.34 30.502,153.978 30.502,152.559L30.502,-8.029C30.502,-9.449 30.659,-10.811 30.94,-11.814C31.221,-12.818 31.603,-13.382 32,-13.382C32.397,-13.382 32.779,-12.818 33.06,-11.814C33.341,-10.811 33.498,-9.449 33.498,-8.029L33.498,152.559C33.498,153.978 33.341,155.34 33.06,156.344C32.96,156.701 32.847,157.002 32.726,157.242C32.642,156.088 32.349,155.235 32,155.235C32.199,155.235 32.389,154.953 32.53,154.451C32.67,153.949 32.749,153.268 32.749,152.559L32.749,-8.029C32.749,-8.739 32.67,-9.42 32.53,-9.922C32.389,-10.424 32.199,-10.706 32,-10.706C31.801,-10.706 31.611,-10.424 31.47,-9.922C31.33,-9.42 31.251,-8.739 31.251,-8.029L31.251,152.559C31.251,153.268 31.33,153.949 31.47,154.451C31.611,154.953 31.801,155.235 32,155.235L32,157.911Z"/>
        </g>
        <g transform="matrix(-2.45177e-16,-1.33468,-0.373627,6.86342e-17,59,90.7098)">
            <path d="M33.498,-8.029C33.498,-0.219 33.498,144.636 33.498,152.462C33.498,155.472 32.816,157.911 31.973,157.911C31.973,157.911 31.972,157.911 31.972,157.911C31.582,157.911 31.208,157.358 30.932,156.373C30.656,155.389 30.502,154.053 30.502,152.66C30.502,144.866 30.502,-0.219 30.502,-8.029C30.502,-9.449 30.659,-10.811 30.94,-11.814C31.221,-12.818 31.603,-13.382 32,-13.382C32.397,-13.382 32.779,-12.818 33.06,-11.814C33.341,-10.811 33.498,-9.449 33.498,-8.029Z" style="fill:rgb(217,201,104);"/>
            <path d="M33.498,-8.029C33.498,-9.449 33.341,-10.811 33.06,-11.814C32.779,-12.818 32.397,-13.382 32,-13.382C31.603,-13.382 31.221,-12.818 30.94,-11.814C30.659,-10.811 30.502,-9.449 30.502,-8.029L30.502,152.66C30.502,154.053 30.656,155.389 30.932,156.373C31.208,157.358 31.582,157.911 31.972,157.911L31.973,157.911C32.816,157.911 33.498,155.472 33.498,152.462L33.498,-8.029ZM31.251,-8.029C31.251,-8.739 31.33,-9.42 31.47,-9.922C31.611,-10.424 31.801,-10.706 32,-10.706C32.199,-10.706 32.389,-10.424 32.53,-9.922C32.67,-9.42 32.749,-8.739 32.749,-8.029L32.749,152.462C32.749,153.994 32.402,155.235 31.973,155.235L31.972,155.235C31.78,155.235 31.597,154.964 31.462,154.481C31.327,153.998 31.251,153.343 31.251,152.66L31.251,-8.029Z"/>
        </g>
        <g transform="matrix(1.0695,0,0,1.0695,-2.22389,-2.22389)">
            <path d="M48.83,11.43C49.822,11.43 50.774,11.824 51.475,12.525C52.176,13.226 52.57,14.178 52.57,15.17L52.57,48.83C52.57,49.822 52.176,50.774 51.475,51.475C50.774,52.176 49.822,52.57 48.83,52.57L15.17,52.57C14.178,52.57 13.226,52.176 12.525,51.475C11.824,50.774 11.43,49.822 11.43,48.83L11.43,15.17C11.43,14.178 11.824,13.226 12.525,12.525C13.226,11.824 14.178,11.43 15.17,11.43L48.83,11.43Z" style="fill:rgb(174,214,203);"/>
            <path d="M48.83,11.43C49.822,11.43 50.774,11.824 51.475,12.525C52.176,13.226 52.57,14.178 52.57,15.17L52.57,48.83C52.57,49.822 52.176,50.774 51.475,51.475C50.774,52.176 49.822,52.57 48.83,52.57L15.17,52.57C14.178,52.57 13.226,52.176 12.525,51.475C11.824,50.774 11.43,49.822 11.43,48.83L11.43,15.17C11.43,14.178 11.824,13.226 12.525,12.525C13.226,11.824 14.178,11.43 15.17,11.43L48.83,11.43ZM48.83,13.3L15.17,13.3C14.674,13.3 14.198,13.497 13.847,13.847C13.497,14.198 13.3,14.674 13.3,15.17L13.3,48.83C13.3,49.326 13.497,49.802 13.847,50.153C14.198,50.503 14.674,50.7 15.17,50.7L48.83,50.7C49.326,50.7 49.802,50.503 50.153,50.153C50.503,49.802 50.7,49.326 50.7,48.83L50.7,15.17C50.7,14.674 50.503,14.198 50.153,13.847C49.802,13.497 49.326,13.3 48.83,13.3Z"/>
        </g>
    </g>
</svg>
