<?xml version="1.0" encoding="UTF-8" standalone="no"?>
<!DOCTYPE svg PUBLIC "-//W3C//DTD SVG 1.1//EN" "http://www.w3.org/Graphics/SVG/1.1/DTD/svg11.dtd">
<svg width="100%" height="100%" viewBox="0 0 28 32" version="1.1" xmlns="http://www.w3.org/2000/svg" xmlns:xlink="http://www.w3.org/1999/xlink" xml:space="preserve" xmlns:serif="http://www.serif.com/" style="fill-rule:evenodd;clip-rule:evenodd;stroke-linejoin:round;stroke-miterlimit:2;">
    <g transform="matrix(1.65016e-16,2.69492,-2.38695,1.46158e-16,28,-4.55206)">
        <path d="M6.884,11.73L1.689,11.73L4.287,-0L10.966,-0L13.563,11.73L8.368,11.73L7.626,8.379L6.884,11.73Z" style="fill:rgb(235,235,235);"/>
        <path d="M6.884,11.73L1.689,11.73L4.287,-0L10.966,-0L13.563,11.73L8.368,11.73L7.626,8.379L6.884,11.73ZM6.774,11.572L7.49,8.34C7.506,8.27 7.562,8.22 7.626,8.22C7.691,8.22 7.747,8.27 7.762,8.34L8.478,11.572L13.384,11.572L10.856,0.158L4.396,0.158L1.869,11.572L6.774,11.572Z"/>
    </g>
</svg>
